<?xml version="1.0" encoding="utf-8"?>
<!-- Generator: Adobe Illustrator 16.0.0, SVG Export Plug-In . SVG Version: 6.00 Build 0)  -->
<!DOCTYPE svg PUBLIC "-//W3C//DTD SVG 1.1//EN" "http://www.w3.org/Graphics/SVG/1.1/DTD/svg11.dtd">
<svg version="1.1" id="Layer_1" xmlns="http://www.w3.org/2000/svg" xmlns:xlink="http://www.w3.org/1999/xlink" x="0px" y="0px"
	 width="299.434px" height="289.134px" viewBox="0 0 299.434 289.134" enable-background="new 0 0 299.434 289.134"
	 xml:space="preserve">
<path fill="#5F5A00" d="M278.461,123.922h5.485c8.583,0,15.487-6.905,15.487-15.487V25.837c0-6.26-3.743-11.938-9.55-14.326
	c-5.808-2.388-12.454-1.097-16.907,3.355l-26.844,26.844c-56.528-55.818-147.58-55.625-203.785,0.646
	c-56.463,56.463-56.463,147.966,0,204.43s147.966,56.463,204.43,0c8.066-8.066,8.066-21.166,0-29.232
	c-8.066-8.066-21.166-8.066-29.232,0c-40.331,40.331-105.699,40.331-146.03,0s-40.331-105.7,0-146.031
	c40.137-40.137,104.99-40.331,145.385-0.645l-26.522,26.586c-4.452,4.452-5.743,11.099-3.355,16.906
	c2.388,5.808,8.066,9.551,14.326,9.551H278.461z"/>
</svg>
